<svg width="100%" height="100%" id="svg" viewBox="0 0 1440 490" xmlns="http://www.w3.org/2000/svg" class="transition duration-300 ease-in-out delay-150"><defs><linearGradient id="gradient" x1="0%" y1="50%" x2="100%" y2="50%"><stop offset="5%" stop-color="#F78DA7"></stop><stop offset="95%" stop-color="#f78da7"></stop></linearGradient></defs><path d="M 0,500 L 0,93 C 103.67464114832532,92.53110047846889 207.34928229665064,92.06220095693779 299,85 C 390.65071770334936,77.93779904306221 470.27751196172255,64.28229665071771 570,61 C 669.7224880382774,57.71770334928229 789.5406698564593,64.8086124401914 877,73 C 964.4593301435407,81.1913875598086 1019.5598086124403,90.48325358851675 1108,94 C 1196.4401913875597,97.51674641148325 1318.22009569378,95.25837320574163 1440,93 L 1440,500 L 0,500 Z" stroke="none" stroke-width="0" fill="url(#gradient)" fill-opacity="0.4" class="transition-all duration-300 ease-in-out delay-150 path-0"></path><defs><linearGradient id="gradient" x1="0%" y1="50%" x2="100%" y2="50%"><stop offset="5%" stop-color="#F78DA7"></stop><stop offset="95%" stop-color="#f78da7"></stop></linearGradient></defs><path d="M 0,500 L 0,218 C 82.62200956937801,196.85167464114832 165.24401913875602,175.70334928229664 263,183 C 360.755980861244,190.29665071770336 473.645933014354,226.03827751196172 585,231 C 696.354066985646,235.96172248803828 806.1722488038279,210.14354066985646 911,207 C 1015.8277511961721,203.85645933014354 1115.665071770335,223.38755980861245 1203,229 C 1290.334928229665,234.61244019138755 1365.1674641148325,226.3062200956938 1440,218 L 1440,500 L 0,500 Z" stroke="none" stroke-width="0" fill="url(#gradient)" fill-opacity="0.53" class="transition-all duration-300 ease-in-out delay-150 path-1"></path><defs><linearGradient id="gradient" x1="0%" y1="50%" x2="100%" y2="50%"><stop offset="5%" stop-color="#F78DA7"></stop><stop offset="95%" stop-color="#f78da7"></stop></linearGradient></defs><path d="M 0,500 L 0,343 C 118.14354066985646,338.17703349282294 236.28708133971293,333.35406698564594 333,332 C 429.7129186602871,330.64593301435406 504.9952153110047,332.7607655502393 601,333 C 697.0047846889953,333.2392344497607 813.7320574162679,331.6028708133971 899,322 C 984.2679425837321,312.3971291866029 1038.0765550239234,294.82775119617224 1123,297 C 1207.9234449760766,299.17224880382776 1323.9617224880383,321.0861244019139 1440,343 L 1440,500 L 0,500 Z" stroke="none" stroke-width="0" fill="url(#gradient)" fill-opacity="1" class="transition-all duration-300 ease-in-out delay-150 path-2"></path></svg>